<svg width="20" height="20" viewBox="0 0 20 20" fill="none" xmlns="http://www.w3.org/2000/svg">
<path d="M9.4213 4.02161C9.4213 3.98072 9.4213 3.95431 9.4213 3.9279C9.4213 3.29783 9.4201 2.66776 9.42197 2.03768C9.42291 1.72171 9.66941 1.46619 9.97812 1.4544C10.3037 1.44206 10.5776 1.70455 10.5783 2.03339C10.5796 2.65676 10.5787 3.28013 10.5787 3.9035C10.5787 3.99359 10.5796 3.99466 10.6541 3.95029C11.0697 3.70241 11.4847 3.4536 11.9004 3.206C12.2583 2.99285 12.6978 3.18723 12.7785 3.59369C12.8262 3.83393 12.7121 4.07443 12.4842 4.21103C12.0577 4.46654 11.6306 4.72139 11.204 4.97677C11.0146 5.09018 10.826 5.20494 10.6356 5.31674C10.5942 5.34114 10.5777 5.36942 10.5777 5.41822C10.5789 6.51307 10.5785 7.60779 10.5788 8.70264C10.5788 8.77517 10.5849 8.77825 10.6487 8.74138C11.5652 8.21038 12.4802 7.67696 13.3998 7.15159C13.508 7.08979 13.5473 7.02692 13.5458 6.90358C13.5418 6.55972 13.5522 6.21573 13.5585 5.87187C13.5648 5.53029 13.573 5.18871 13.5803 4.84714C13.587 4.53505 13.8359 4.28436 14.143 4.28047C14.4618 4.27645 14.7321 4.51749 14.7343 4.83132C14.7374 5.24207 14.7219 5.65296 14.7147 6.06384C14.7132 6.15098 14.7143 6.23812 14.7112 6.32512C14.7093 6.37888 14.727 6.38089 14.7685 6.35663C15.0361 6.20032 15.3045 6.04534 15.5728 5.89011C15.8565 5.72602 16.1398 5.56099 16.4244 5.39851C16.6512 5.26915 16.9597 5.32827 17.1372 5.53217C17.3139 5.73513 17.3214 6.04347 17.1575 6.26359C17.0971 6.34496 17.0164 6.39859 16.9311 6.44792C16.3964 6.75692 15.8615 7.06579 15.3267 7.37493C15.3175 7.38029 15.3092 7.38713 15.2917 7.3996C15.3808 7.44987 15.4633 7.49652 15.546 7.54291C15.9173 7.75163 16.2887 7.95996 16.6597 8.16896C16.9423 8.32822 17.0398 8.67074 16.8866 8.96405C16.7505 9.22439 16.4006 9.34009 16.1279 9.19745C15.8001 9.02599 15.4808 8.83817 15.1582 8.65693C14.8277 8.47139 14.4972 8.28572 14.1674 8.09898C14.1313 8.07847 14.1024 8.08222 14.0681 8.10206C13.1848 8.6147 12.3013 9.12667 11.4177 9.63877C11.3501 9.67791 11.2835 9.71867 11.2147 9.75526C11.1681 9.77993 11.1716 9.79468 11.2151 9.81961C11.4356 9.94603 11.655 10.0746 11.8749 10.2021C12.2646 10.4277 12.6546 10.6532 13.0445 10.8785C13.3804 11.0728 13.7166 11.2662 14.0517 11.4618C14.0931 11.4861 14.1246 11.4877 14.1675 11.4634C14.8054 11.1012 15.444 10.7402 16.0832 10.3804C16.3513 10.2296 16.7036 10.3331 16.8611 10.6057C17.0188 10.8787 16.924 11.2326 16.6422 11.3969C16.3533 11.5654 16.0602 11.7266 15.7691 11.8911C15.6234 11.9733 15.4783 12.0562 15.332 12.1372C15.2898 12.1605 15.2835 12.1755 15.3302 12.2025C15.7691 12.4548 16.2072 12.708 16.6453 12.9618C16.7765 13.0378 16.9093 13.1115 17.036 13.1945C17.226 13.3192 17.3146 13.5724 17.2578 13.8038C17.2015 14.0333 17.008 14.2059 16.7825 14.2364C16.636 14.2563 16.5043 14.223 16.3791 14.1505C15.8696 13.8554 15.3603 13.5604 14.8504 13.2661C14.8226 13.25 14.792 13.2137 14.7628 13.23C14.7325 13.2471 14.7501 13.2917 14.7505 13.3239C14.7553 13.6991 14.7602 14.0743 14.7682 14.4496C14.7709 14.5745 14.7877 14.6997 14.7685 14.824C14.7219 15.1236 14.459 15.3467 14.1782 15.3287C13.8563 15.3081 13.6199 15.0653 13.6134 14.7436C13.6053 14.3482 13.6016 13.9529 13.5941 13.5577C13.588 13.2317 13.5779 12.9058 13.5723 12.5797C13.5715 12.5308 13.5462 12.5085 13.5096 12.4874C13.0171 12.2032 12.525 11.9183 12.0327 11.6338C11.5712 11.3673 11.1097 11.1009 10.6479 10.8347C10.5821 10.7968 10.5792 10.7981 10.5792 10.8726C10.5789 11.9652 10.5793 13.0578 10.578 14.1504C10.578 14.1992 10.5951 14.228 10.636 14.2524C11.1763 14.5742 11.7158 14.8973 12.2554 15.2203C12.3415 15.2717 12.4275 15.3235 12.5126 15.3766C12.7852 15.547 12.8686 15.8981 12.7032 16.1752C12.5434 16.4429 12.1865 16.5312 11.9122 16.3683C11.4923 16.119 11.0738 15.8674 10.6544 15.6172C10.6342 15.6051 10.6133 15.5782 10.5899 15.5915C10.5665 15.6047 10.5792 15.6367 10.5792 15.66C10.5785 16.2878 10.5799 16.9157 10.578 17.5435C10.5771 17.8711 10.2993 18.1346 9.97517 18.1201C9.66554 18.1063 9.42251 17.8516 9.42171 17.5342C9.4201 16.9333 9.42144 16.3321 9.42064 15.7312C9.42064 15.6966 9.43856 15.6478 9.40913 15.6306C9.38024 15.6137 9.346 15.6523 9.31644 15.67C8.91813 15.9077 8.52022 16.1461 8.1227 16.385C7.90241 16.5174 7.68146 16.5212 7.46825 16.3769C7.12598 16.1454 7.13789 15.6322 7.49193 15.4108C7.79247 15.2228 8.0993 15.0449 8.40345 14.8626C8.72673 14.6689 9.04947 14.4744 9.37396 14.2825C9.42291 14.2536 9.42144 14.2135 9.42144 14.1682C9.42117 13.1114 9.42117 12.0545 9.42117 10.9977C9.42117 10.9552 9.42157 10.9129 9.42104 10.8704C9.42023 10.7997 9.41582 10.7966 9.35577 10.8311C9.20489 10.9175 9.05429 11.0047 8.90382 11.0918C8.42137 11.3711 7.93893 11.6504 7.45662 11.9297C7.14404 12.1107 6.83173 12.292 6.51834 12.4718C6.48223 12.4925 6.47113 12.5181 6.46939 12.5579C6.45695 12.837 6.4603 13.1162 6.45548 13.3953C6.44772 13.8486 6.4405 14.302 6.42967 14.7552C6.42244 15.0573 6.17607 15.3083 5.88222 15.3199C5.56656 15.3322 5.29625 15.1121 5.27833 14.7993C5.26308 14.5326 5.28033 14.2639 5.28368 13.9961C5.28689 13.7392 5.2917 13.4823 5.29317 13.2255C5.29358 13.1668 5.25719 13.2052 5.24141 13.2142C5.08412 13.303 4.92776 13.3933 4.77141 13.4838C4.38941 13.705 4.00527 13.9229 3.62622 14.1493C3.28515 14.353 2.91252 14.1953 2.78104 13.9162C2.64889 13.6357 2.75683 13.3066 3.02581 13.1519C3.55346 12.8484 4.07951 12.5421 4.60582 12.2363C4.68045 12.1928 4.67925 12.18 4.60274 12.1369C4.18303 11.9007 3.76198 11.6668 3.34414 11.4272C2.99357 11.2264 2.94515 10.7606 3.24195 10.4871C3.42238 10.3207 3.70072 10.2955 3.92756 10.4233C4.55312 10.7757 5.17935 11.1268 5.80411 11.4805C5.85079 11.5069 5.88382 11.4996 5.92609 11.4751C6.84791 10.9401 7.77027 10.406 8.69262 9.87189C8.83855 9.78744 8.83962 9.78596 8.69342 9.70124C8.00447 9.30242 7.31497 8.90467 6.62575 8.50638C6.4076 8.38037 6.18918 8.25475 5.97223 8.12646C5.92983 8.10139 5.89814 8.1038 5.85627 8.12753C5.21439 8.49177 4.57212 8.85547 3.92877 9.21702C3.65377 9.37159 3.29946 9.2677 3.14591 8.99234C2.98983 8.71229 3.08733 8.36213 3.36781 8.2026C3.80384 7.9546 4.24081 7.70793 4.67711 7.46033C4.69584 7.44974 4.72606 7.44464 4.72647 7.42051C4.727 7.39222 4.6945 7.38686 4.6743 7.3752C4.12043 7.05467 3.56496 6.73668 3.0127 6.41347C2.75135 6.26037 2.65638 5.9515 2.77475 5.67441C2.90717 5.36433 3.3008 5.23765 3.59291 5.4075C4.12685 5.71798 4.66226 6.02591 5.19727 6.33464C5.26134 6.37164 5.26321 6.37097 5.26188 6.29496C5.25332 5.81262 5.24155 5.33028 5.23633 4.84794C5.23406 4.6317 5.33531 4.46507 5.51908 4.35487C5.90041 4.12617 6.38285 4.39764 6.39222 4.84432C6.39837 5.13241 6.40171 5.4205 6.4072 5.70859C6.41536 6.13731 6.42565 6.56603 6.43154 6.99474C6.43234 7.05628 6.4714 7.07411 6.51112 7.09716C6.91425 7.33096 7.31751 7.56449 7.72091 7.79788C8.2594 8.10943 8.79802 8.42085 9.33651 8.73227C9.35001 8.74004 9.36366 8.74782 9.37717 8.75546C9.40994 8.77396 9.42197 8.76029 9.4213 8.72677C9.42104 8.71337 9.42144 8.69996 9.42144 8.68655C9.42144 7.61181 9.4209 6.5372 9.42278 5.46246C9.42291 5.39825 9.40178 5.36353 9.3464 5.33082C8.94113 5.09179 8.53841 4.84861 8.13461 4.60704C7.93558 4.48799 7.7371 4.36801 7.53687 4.25098C7.20369 4.05619 7.11809 3.65442 7.34908 3.3615C7.52389 3.13977 7.85252 3.08441 8.10505 3.23536C8.5166 3.48135 8.92762 3.72815 9.33891 3.97442C9.36165 3.98809 9.38479 4.00083 9.4213 4.02161Z" fill="#959595"/>
</svg>
