<svg width="48" height="48" viewBox="0 0 48 48" fill="none" xmlns="http://www.w3.org/2000/svg">
<path d="M33.5001 7.12V4C33.5001 3.18 32.8201 2.5 32.0001 2.5C31.1801 2.5 30.5001 3.18 30.5001 4V7H17.5001V4C17.5001 3.18 16.8201 2.5 16.0001 2.5C15.1801 2.5 14.5001 3.18 14.5001 4V7.12C9.10009 7.62 6.48009 10.84 6.08009 15.62C6.04009 16.2 6.52009 16.68 7.08009 16.68H40.9201C41.5001 16.68 41.9801 16.18 41.9201 15.62C41.5201 10.84 38.9001 7.62 33.5001 7.12Z" fill="#1572D3"/>
<path d="M40.0001 19.6799H8.00006C6.90006 19.6799 6.00006 20.5799 6.00006 21.6799V33.9999C6.00006 39.9999 9.00006 43.9999 16.0001 43.9999H32.0001C39.0001 43.9999 42.0001 39.9999 42.0001 33.9999V21.6799C42.0001 20.5799 41.1001 19.6799 40.0001 19.6799ZM18.4201 36.4199C18.3201 36.4999 18.2201 36.5999 18.1201 36.6599C18.0001 36.7399 17.8801 36.7999 17.7601 36.8399C17.6401 36.8999 17.5201 36.9399 17.4001 36.9599C17.2601 36.9799 17.1401 36.9999 17.0001 36.9999C16.7401 36.9999 16.4801 36.9399 16.2401 36.8399C15.9801 36.7399 15.7801 36.5999 15.5801 36.4199C15.2201 36.0399 15.0001 35.5199 15.0001 34.9999C15.0001 34.4799 15.2201 33.9599 15.5801 33.5799C15.7801 33.3999 15.9801 33.2599 16.2401 33.1599C16.6001 32.9999 17.0001 32.9599 17.4001 33.0399C17.5201 33.0599 17.6401 33.0999 17.7601 33.1599C17.8801 33.1999 18.0001 33.2599 18.1201 33.3399C18.2201 33.4199 18.3201 33.4999 18.4201 33.5799C18.7801 33.9599 19.0001 34.4799 19.0001 34.9999C19.0001 35.5199 18.7801 36.0399 18.4201 36.4199ZM18.4201 29.4199C18.0401 29.7799 17.5201 29.9999 17.0001 29.9999C16.4801 29.9999 15.9601 29.7799 15.5801 29.4199C15.2201 29.0399 15.0001 28.5199 15.0001 27.9999C15.0001 27.4799 15.2201 26.9599 15.5801 26.5799C16.1401 26.0199 17.0201 25.8399 17.7601 26.1599C18.0201 26.2599 18.2401 26.3999 18.4201 26.5799C18.7801 26.9599 19.0001 27.4799 19.0001 27.9999C19.0001 28.5199 18.7801 29.0399 18.4201 29.4199ZM25.4201 36.4199C25.0401 36.7799 24.5201 36.9999 24.0001 36.9999C23.4801 36.9999 22.9601 36.7799 22.5801 36.4199C22.2201 36.0399 22.0001 35.5199 22.0001 34.9999C22.0001 34.4799 22.2201 33.9599 22.5801 33.5799C23.3201 32.8399 24.6801 32.8399 25.4201 33.5799C25.7801 33.9599 26.0001 34.4799 26.0001 34.9999C26.0001 35.5199 25.7801 36.0399 25.4201 36.4199ZM25.4201 29.4199C25.3201 29.4999 25.2201 29.5799 25.1201 29.6599C25.0001 29.7399 24.8801 29.7999 24.7601 29.8399C24.6401 29.8999 24.5201 29.9399 24.4001 29.9599C24.2601 29.9799 24.1401 29.9999 24.0001 29.9999C23.4801 29.9999 22.9601 29.7799 22.5801 29.4199C22.2201 29.0399 22.0001 28.5199 22.0001 27.9999C22.0001 27.4799 22.2201 26.9599 22.5801 26.5799C22.7601 26.3999 22.9801 26.2599 23.2401 26.1599C23.9801 25.8399 24.8601 26.0199 25.4201 26.5799C25.7801 26.9599 26.0001 27.4799 26.0001 27.9999C26.0001 28.5199 25.7801 29.0399 25.4201 29.4199ZM32.4201 36.4199C32.0401 36.7799 31.5201 36.9999 31.0001 36.9999C30.4801 36.9999 29.9601 36.7799 29.5801 36.4199C29.2201 36.0399 29.0001 35.5199 29.0001 34.9999C29.0001 34.4799 29.2201 33.9599 29.5801 33.5799C30.3201 32.8399 31.6801 32.8399 32.4201 33.5799C32.7801 33.9599 33.0001 34.4799 33.0001 34.9999C33.0001 35.5199 32.7801 36.0399 32.4201 36.4199ZM32.4201 29.4199C32.3201 29.4999 32.2201 29.5799 32.1201 29.6599C32.0001 29.7399 31.8801 29.7999 31.7601 29.8399C31.6401 29.8999 31.5201 29.9399 31.4001 29.9599C31.2601 29.9799 31.1201 29.9999 31.0001 29.9999C30.4801 29.9999 29.9601 29.7799 29.5801 29.4199C29.2201 29.0399 29.0001 28.5199 29.0001 27.9999C29.0001 27.4799 29.2201 26.9599 29.5801 26.5799C29.7801 26.3999 29.9801 26.2599 30.2401 26.1599C30.6001 25.9999 31.0001 25.9599 31.4001 26.0399C31.5201 26.0599 31.6401 26.0999 31.7601 26.1599C31.8801 26.1999 32.0001 26.2599 32.1201 26.3399C32.2201 26.4199 32.3201 26.4999 32.4201 26.5799C32.7801 26.9599 33.0001 27.4799 33.0001 27.9999C33.0001 28.5199 32.7801 29.0399 32.4201 29.4199Z" fill="#1572D3"/>
</svg>
