<svg width="48" height="48" viewBox="0 0 48 48" fill="none" xmlns="http://www.w3.org/2000/svg">
<path d="M43.5001 16.0002C43.5001 16.8202 42.8201 17.5002 42.0001 17.5002H6.00006C5.18006 17.5002 4.50006 16.8202 4.50006 16.0002C4.50006 15.1802 5.18006 14.5002 6.00006 14.5002H8.04006L8.80006 10.8802C9.52006 7.38016 11.0201 4.16016 16.9801 4.16016H31.0201C36.9801 4.16016 38.4801 7.38016 39.2001 10.8802L39.9601 14.5002H42.0001C42.8201 14.5002 43.5001 15.1802 43.5001 16.0002Z" fill="#1572D3"/>
<path d="M44.3593 27.32C44.0593 24.02 43.1793 20.5 36.7593 20.5H11.2393C4.81926 20.5 3.95926 24.02 3.63926 27.32L2.51926 39.5C2.37926 41.02 2.87926 42.54 3.91926 43.68C4.97926 44.84 6.47926 45.5 8.07926 45.5H11.8393C15.0793 45.5 15.6993 43.64 16.0993 42.42L16.4993 41.22C16.9593 39.84 17.0793 39.5 18.8793 39.5H29.1193C30.9193 39.5 30.9793 39.7 31.4993 41.22L31.8993 42.42C32.2993 43.64 32.9193 45.5 36.1593 45.5H39.9193C41.4993 45.5 43.0193 44.84 44.0793 43.68C45.1193 42.54 45.6193 41.02 45.4793 39.5L44.3593 27.32ZM17.9993 31.5H11.9993C11.1793 31.5 10.4993 30.82 10.4993 30C10.4993 29.18 11.1793 28.5 11.9993 28.5H17.9993C18.8193 28.5 19.4993 29.18 19.4993 30C19.4993 30.82 18.8193 31.5 17.9993 31.5ZM35.9993 31.5H29.9993C29.1793 31.5 28.4993 30.82 28.4993 30C28.4993 29.18 29.1793 28.5 29.9993 28.5H35.9993C36.8193 28.5 37.4993 29.18 37.4993 30C37.4993 30.82 36.8193 31.5 35.9993 31.5Z" fill="#1572D3"/>
</svg>
