<svg width="20" height="20" viewBox="0 0 20 20" fill="none" xmlns="http://www.w3.org/2000/svg">
<path d="M9.41676 17.6327C7.19407 17.6327 4.97138 17.6329 2.74848 17.6325C2.51471 17.6325 2.28327 17.6122 2.06705 17.5139C1.81066 17.3977 1.66884 17.2127 1.66947 16.9143C1.67391 14.5893 1.67771 12.2645 1.66778 9.93954C1.66546 9.41789 1.82081 8.95712 2.08184 8.52087C2.3006 8.15542 2.59017 7.84726 2.88608 7.54459C4.04202 6.36265 5.37445 5.42208 6.83455 4.65547C7.72861 4.18624 8.65713 3.79882 9.6146 3.48093C10.6858 3.1252 11.7806 2.86396 12.8943 2.68113C13.5823 2.56847 14.2741 2.48752 14.9688 2.43341C15.8716 2.36303 16.7766 2.34971 17.6817 2.36831C18.0932 2.37677 18.3764 2.7327 18.3293 3.14317C18.2739 3.62529 18.2336 4.1091 18.186 4.59206C18.1401 5.05769 18.0924 5.52311 18.0471 5.98874C18.0008 6.46495 17.9571 6.94115 17.911 7.41735C17.8668 7.876 17.8214 8.33466 17.7762 8.79332C17.7373 9.18878 17.6977 9.58424 17.6589 9.97991C17.6115 10.4595 17.5644 10.9391 17.5175 11.4187C17.4726 11.8773 17.4287 12.336 17.3837 12.7944C17.3374 13.267 17.2898 13.7394 17.2433 14.212C17.2051 14.6005 17.1698 14.9894 17.1296 15.3779C17.0751 15.9061 17.0438 16.4375 16.9603 16.9619C16.8901 17.4021 16.5936 17.6331 16.1485 17.6329C13.9046 17.6325 11.6606 17.6327 9.41676 17.6327ZM4.04836 9.87C4.07394 9.9036 4.11071 9.90382 4.14284 9.91058C4.4119 9.96849 4.68118 10.0013 4.95912 9.98075C5.55157 9.937 6.04193 9.69478 6.43549 9.25472C6.49129 9.19237 6.54815 9.17208 6.62762 9.17208C8.86405 9.17335 11.1007 9.17314 13.3371 9.17292C14.4113 9.17292 15.4856 9.17166 16.5598 9.17483C16.6633 9.17504 16.6982 9.14672 16.7037 9.03955C16.7168 8.79036 16.7472 8.54222 16.7697 8.29344C16.81 7.84853 16.85 7.40382 16.8895 6.9589C16.921 6.60508 16.9521 6.25105 16.9823 5.89723C17.022 5.43476 17.0622 4.9723 17.0994 4.50963C17.1262 4.17652 17.1455 3.84278 17.1746 3.51009C17.1896 3.34016 17.1854 3.32832 17.0146 3.326C16.4194 3.31754 15.8257 3.33847 15.2318 3.38285C14.6805 3.42407 14.1318 3.48389 13.5857 3.56526C12.7603 3.68806 11.9434 3.85462 11.1362 4.06809C9.9103 4.39232 8.72371 4.82075 7.58911 5.38847C6.68236 5.84227 5.82867 6.3804 5.03838 7.01681C4.87394 7.14934 4.71521 7.28905 4.5569 7.42876C4.46157 7.51288 4.46453 7.51521 4.56831 7.57862C4.61333 7.60609 4.65856 7.63357 4.70084 7.66527C5.17218 8.01804 5.39876 8.49825 5.43976 9.07718C5.44716 9.18201 5.39686 9.24923 5.32647 9.31306C5.07875 9.53816 4.78961 9.68569 4.46876 9.77256C4.33138 9.80955 4.19082 9.83724 4.04836 9.87ZM9.40028 16.526C9.40028 16.5262 9.40028 16.5262 9.40028 16.5264C11.5625 16.5264 13.7248 16.5264 15.887 16.526C15.9324 16.526 15.9794 16.5264 16.0233 16.5163C16.1206 16.4941 16.1954 16.4085 16.1888 16.3364C16.1808 16.2491 16.1062 16.1957 15.987 16.1933C15.913 16.1919 15.839 16.1925 15.765 16.1925C14.5465 16.1925 13.3282 16.1929 12.1097 16.1929C9.05301 16.1929 5.99628 16.1927 2.93976 16.1927C2.89411 16.1927 2.84782 16.1912 2.80259 16.1963C2.71445 16.206 2.66034 16.2559 2.6521 16.3455C2.64385 16.437 2.69458 16.4933 2.77765 16.5163C2.82055 16.5283 2.86832 16.5258 2.91376 16.5258C5.07579 16.5262 7.23804 16.526 9.40028 16.526ZM14.7685 10.5527C14.7685 10.5525 14.7685 10.5525 14.7685 10.5523C14.4449 10.5523 14.1211 10.5512 13.7975 10.5525C13.5542 10.5535 13.3777 10.7161 13.3718 10.9416C13.3661 11.1568 13.5394 11.3407 13.7776 11.343C14.432 11.3493 15.0864 11.3491 15.7405 11.3428C15.9868 11.3404 16.1542 11.1608 16.1478 10.9353C16.1417 10.7123 15.9637 10.5531 15.7181 10.5527C15.4017 10.5523 15.0851 10.5527 14.7685 10.5527Z" fill="#959595"/>
</svg>
