<svg width="48" height="48" viewBox="0 0 48 48" fill="none" xmlns="http://www.w3.org/2000/svg">
<path d="M41.2401 17.4C39.1601 8.14 31.0801 4 24.0001 4C24.0001 4 24.0001 4 23.9801 4C16.9201 4 8.86005 8.14 6.76005 17.38C4.40005 27.7 10.7201 36.44 16.4401 41.96C18.5601 44 21.2801 45.02 24.0001 45.02C26.7201 45.02 29.4401 44 31.5401 41.96C37.2601 36.44 43.5801 27.72 41.2401 17.4ZM30.5601 19.06L22.5601 27.06C22.2601 27.36 21.8801 27.5 21.5001 27.5C21.1201 27.5 20.7401 27.36 20.4401 27.06L17.4401 24.06C16.8601 23.48 16.8601 22.52 17.4401 21.94C18.0201 21.36 18.9801 21.36 19.5601 21.94L21.5001 23.88L28.4401 16.94C29.0201 16.36 29.9801 16.36 30.5601 16.94C31.1401 17.52 31.1401 18.48 30.5601 19.06Z" fill="#1572D3"/>
</svg>
