<svg width="24" height="27" viewBox="0 0 24 27" fill="none" xmlns="http://www.w3.org/2000/svg">
<path fill-rule="evenodd" clip-rule="evenodd" d="M12.8619 22.5344C11.6945 22.5344 10.5781 22.3138 9.55404 21.9102L5.87842 24.3015C7.88879 25.6047 10.2877 26.3609 12.8619 26.3609C17.6219 26.3609 21.7785 23.7754 24.0019 19.9319L20.6884 18.0177C19.125 20.7183 16.2056 22.5344 12.8619 22.5344Z" fill="#1572D3"/>
<path fill-rule="evenodd" clip-rule="evenodd" d="M4.27734 3.92241L8.06235 13.5009L4.27734 23.0776L10.2538 19.1888L19.0006 13.5009L10.2538 7.81115L4.27734 3.92241Z" fill="#1572D3"/>
<path fill-rule="evenodd" clip-rule="evenodd" d="M12.862 4.46556C16.2057 4.46556 19.1251 6.28169 20.6885 8.98231L24.002 7.06811C21.7766 3.22463 17.622 0.639053 12.862 0.639053C10.2858 0.639053 7.88885 1.3953 5.87659 2.69846L9.5541 5.0898C10.5781 4.68621 11.6927 4.46556 12.862 4.46556Z" fill="#1572D3"/>
<path fill-rule="evenodd" clip-rule="evenodd" d="M2.82885 21.5481L4.58274 17.1238L6.0198 13.4991L4.58274 9.87623L2.82885 5.45189C1.05988 7.65463 0 10.4533 0 13.5009C0 16.5467 1.05988 19.3454 2.82885 21.5481Z" fill="#1572D3"/>
</svg>
