<svg width="24" height="25" viewBox="0 0 24 25" fill="none" xmlns="http://www.w3.org/2000/svg">
<path d="M18.47 17.33L18.86 20.49C18.96 21.32 18.07 21.9 17.36 21.47L13.9 19.41C13.66 19.27 13.6 18.97 13.73 18.73C14.23 17.81 14.5 16.77 14.5 15.73C14.5 12.07 11.36 9.09 7.50002 9.09C6.71002 9.09 5.94002 9.21 5.22002 9.45C4.85002 9.57 4.49002 9.23 4.58002 8.85C5.49002 5.21 8.99002 2.5 13.17 2.5C18.05 2.5 22 6.19 22 10.74C22 13.44 20.61 15.83 18.47 17.33Z" fill="#1572D3"/>
<path d="M13 15.7301C13 16.9201 12.56 18.0201 11.82 18.8901C10.83 20.0901 9.26 20.8601 7.5 20.8601L4.89 22.4101C4.45 22.6801 3.89 22.3101 3.95 21.8001L4.2 19.8301C2.86 18.9001 2 17.4101 2 15.7301C2 13.9701 2.94 12.4201 4.38 11.5001C5.27 10.9201 6.34 10.5901 7.5 10.5901C10.54 10.5901 13 12.8901 13 15.7301Z" fill="#1572D3"/>
</svg>
