<svg width="24" height="25" viewBox="0 0 24 25" fill="none" xmlns="http://www.w3.org/2000/svg">
<path d="M11.94 2.71008L9.53001 8.32008H7.12001C6.72001 8.32008 6.33001 8.35007 5.95001 8.43007L6.95001 6.03008L6.99001 5.94008L7.05001 5.78008C7.08001 5.71008 7.10001 5.65007 7.13001 5.60008C8.29001 2.91007 9.59001 2.07008 11.94 2.71008Z" fill="#1572D3"/>
<path d="M18.73 8.59002L18.71 8.58002C18.11 8.41002 17.5 8.32002 16.88 8.32002H10.62L12.87 3.09002L12.9 3.02002C13.04 3.07002 13.19 3.14002 13.34 3.19002L15.55 4.12002C16.78 4.63002 17.64 5.16002 18.17 5.80002C18.26 5.92002 18.34 6.03002 18.42 6.16002C18.51 6.30002 18.58 6.44002 18.62 6.59002C18.66 6.68002 18.69 6.76002 18.71 6.85002C18.86 7.36002 18.87 7.94002 18.73 8.59002Z" fill="#1572D3"/>
<path d="M12.52 18.1601H12.77C13.07 18.1601 13.32 17.8901 13.32 17.5601C13.32 17.1401 13.2 17.0801 12.94 16.9801L12.52 16.8301V18.1601Z" fill="#1572D3"/>
<path d="M18.29 10.0201C17.84 9.89007 17.37 9.82007 16.88 9.82007H7.11999C6.43999 9.82007 5.79999 9.95007 5.19999 10.2101C3.45999 10.9601 2.23999 12.6901 2.23999 14.7001V16.6501C2.23999 16.8901 2.25999 17.1201 2.28999 17.3601C2.50999 20.5401 4.20999 22.2401 7.38999 22.4501C7.61999 22.4801 7.84999 22.5001 8.09999 22.5001H15.9C19.6 22.5001 21.55 20.7401 21.74 17.2401C21.75 17.0501 21.76 16.8501 21.76 16.6501V14.7001C21.76 12.4901 20.29 10.6301 18.29 10.0201ZM13.28 16.0001C13.74 16.1601 14.36 16.5001 14.36 17.5601C14.36 18.4701 13.65 19.2001 12.77 19.2001H12.52V19.4201C12.52 19.7101 12.29 19.9401 12 19.9401C11.71 19.9401 11.48 19.7101 11.48 19.4201V19.2001H11.39C10.43 19.2001 9.63999 18.3901 9.63999 17.3901C9.63999 17.1001 9.86999 16.8701 10.16 16.8701C10.45 16.8701 10.68 17.1001 10.68 17.3901C10.68 17.8101 11 18.1601 11.39 18.1601H11.48V16.4701L10.72 16.2001C10.26 16.0401 9.63999 15.7001 9.63999 14.6401C9.63999 13.7301 10.35 13.0001 11.23 13.0001H11.48V12.7801C11.48 12.4901 11.71 12.2601 12 12.2601C12.29 12.2601 12.52 12.4901 12.52 12.7801V13.0001H12.61C13.57 13.0001 14.36 13.8101 14.36 14.8101C14.36 15.1001 14.13 15.3301 13.84 15.3301C13.55 15.3301 13.32 15.1001 13.32 14.8101C13.32 14.3901 13 14.0401 12.61 14.0401H12.52V15.7301L13.28 16.0001Z" fill="#1572D3"/>
<path d="M10.68 14.64C10.68 15.06 10.8 15.12 11.06 15.22L11.48 15.37V14.04H11.23C10.92 14.04 10.68 14.31 10.68 14.64Z" fill="#1572D3"/>
</svg>
